<svg width="51" height="50" viewBox="0 0 51 50" fill="none" xmlns="http://www.w3.org/2000/svg">
<path d="M50.0375 8.65345C50.0375 8.00345 49.7938 7.35345 49.3063 6.86595C48.3313 5.89095 47.3563 4.91595 46.4625 3.94095C45.5688 3.0472 44.7562 2.15345 43.8625 1.34095C43.4562 0.853447 42.9688 0.528447 42.3188 0.447197C41.5875 0.365947 40.9375 0.528447 40.3688 1.01595L34.8438 6.54095H6.08125C3.31875 6.54095 0.962498 8.81595 0.962498 11.6597V44.4847C0.962498 47.2472 3.2375 49.6034 6.08125 49.6034H38.9875C41.75 49.6034 44.1063 47.3284 44.1063 44.4847V15.6409L49.3875 10.3597C49.7938 9.8722 50.0375 9.30345 50.0375 8.65345ZM26.15 28.2347C26.0688 28.3159 26.0687 28.3159 25.9875 28.3159L20.1375 30.2659L22.0875 24.4159C22.0875 24.3347 22.1687 24.3347 22.1687 24.2534L36.7938 9.62845L40.8563 13.6097L26.15 28.2347ZM40.3688 44.4847C40.3688 45.2972 39.7188 45.9472 38.9062 45.9472H6.08125C5.26875 45.9472 4.61875 45.2972 4.61875 44.4847V11.5784C4.61875 10.7659 5.26875 10.1159 6.08125 10.1159H31.1063L19.5688 21.7347C19.1625 22.1409 18.7563 22.7097 18.5938 23.3597L15.5875 32.4597C15.3437 33.1097 15.5062 33.6784 15.8313 34.2472C16.075 34.5722 16.5625 35.0597 17.4562 35.0597H17.7812L27.125 31.9722C27.6938 31.8097 28.2625 31.4035 28.6688 30.9972L40.3688 19.2972V44.4847ZM43.375 11.0909L39.3125 7.1097L41.8312 4.59095C42.4813 5.24095 45.1625 7.9222 45.8125 8.65345L43.375 11.0909Z" fill="white"/>
</svg>
