<svg width="52" height="52" viewBox="0 0 52 52" fill="none" xmlns="http://www.w3.org/2000/svg">
<path d="M49.075 16.0063C48.1 15.0313 46.8 14.4626 45.4188 14.4626H39.4875V11.2938C39.4875 10.4001 39.1625 8.2876 36.075 8.2876H15.7625C12.8375 8.2876 12.5125 10.4001 12.5125 11.2938V14.4626H6.58125C3.7375 14.4626 1.38125 16.8188 1.38125 19.6626V38.5126C1.38125 41.3563 3.7375 43.7126 6.58125 43.7126H45.3375C48.1812 43.7126 50.5375 41.3563 50.5375 38.5126V19.6626C50.6187 18.2813 50.05 16.9813 49.075 16.0063ZM46.8812 38.5126C46.8812 39.3251 46.2312 40.0563 45.3375 40.0563H6.58125C5.76875 40.0563 5.0375 39.4063 5.0375 38.5126V19.6626C5.0375 18.8501 5.6875 18.1188 6.58125 18.1188H13.4875C14.95 18.1188 16.1687 16.9001 16.1687 15.4376V11.9438H35.75V15.4376C35.75 16.9001 36.9687 18.1188 38.4312 18.1188H45.4188C45.825 18.1188 46.2312 18.2813 46.475 18.6063C46.8 18.9313 46.8812 19.2563 46.8812 19.6626V38.5126Z" fill="white"/>
<path d="M25.675 19.0938C21.45 19.0938 18.0375 22.5062 18.0375 26.8125C18.0375 31.0375 21.3687 34.3687 25.675 34.3687C29.9 34.3687 33.3125 30.9562 33.3125 26.8125C33.3125 22.6687 29.8187 19.0938 25.675 19.0938ZM25.675 30.7125C23.4 30.7125 21.6937 29.0062 21.6937 26.8125C21.6937 24.6187 23.4812 22.75 25.675 22.75C27.8687 22.75 29.6562 24.6187 29.6562 26.8125C29.6562 29.0062 27.8687 30.7125 25.675 30.7125Z" fill="white"/>
<path d="M11.2125 20.5562H9.34375C8.36875 20.5562 7.475 21.3687 7.475 22.4249C7.475 23.4812 8.2875 24.2937 9.34375 24.2937H11.2125C12.1875 24.2937 13.0812 23.4812 13.0812 22.4249C13.0812 21.3687 12.2687 20.5562 11.2125 20.5562Z" fill="white"/>
</svg>
