<svg width="45" height="43" viewBox="0 0 45 43" fill="none" xmlns="http://www.w3.org/2000/svg">
<path d="M0.71875 29.2812C0.552083 28.9479 0.541667 28.4896 0.6875 27.9062C0.833333 27.3229 1.04167 26.7188 1.3125 26.0938C1.60417 25.4688 1.90625 24.8646 2.21875 24.2812C2.53125 23.6979 2.77083 23.2188 2.9375 22.8438C3 22.7188 3.04167 22.6146 3.0625 22.5312C3.10417 22.4479 3.13542 22.3542 3.15625 22.25C3.19792 22.1458 3.23958 22.0312 3.28125 21.9062C3.32292 21.7812 3.39583 21.6042 3.5 21.375C3.625 21.1042 3.82292 20.6875 4.09375 20.125C4.38542 19.5417 4.70833 18.8958 5.0625 18.1875C5.41667 17.4583 5.78125 16.6979 6.15625 15.9062C6.55208 15.1146 6.91667 14.3646 7.25 13.6562C7.60417 12.9271 7.91667 12.2812 8.1875 11.7188C8.47917 11.1354 8.6875 10.7083 8.8125 10.4375V9.71875C8.4375 9.65625 8.07292 9.67708 7.71875 9.78125C7.36458 9.88542 7.02083 10.0312 6.6875 10.2188C6.375 10.4062 6.0625 10.625 5.75 10.875C5.45833 11.1042 5.1875 11.3125 4.9375 11.5C4.64583 11.4375 4.47917 11.3021 4.4375 11.0938C4.39583 10.8854 4.41667 10.6667 4.5 10.4375C4.58333 10.2083 4.69792 10 4.84375 9.8125C5.01042 9.60417 5.15625 9.45833 5.28125 9.375C7.44792 8.02083 9.77083 7.125 12.25 6.6875C14.7292 6.22917 17.2396 6.1875 19.7812 6.5625C21.3229 7.33333 22.375 8.15625 22.9375 9.03125C23.5 9.88542 23.6979 10.7604 23.5312 11.6562C23.3854 12.5521 22.9271 13.4375 22.1562 14.3125C21.4062 15.1875 20.4688 16.0312 19.3438 16.8438C18.2396 17.6354 17.0104 18.375 15.6562 19.0625C14.3229 19.75 12.9896 20.3438 11.6562 20.8438C10.3438 21.3438 9.09375 21.7396 7.90625 22.0312C6.71875 22.3021 5.72917 22.4375 4.9375 22.4375C4.54167 23.0625 4.21875 23.5833 3.96875 24C3.71875 24.3958 3.52083 24.75 3.375 25.0625C3.22917 25.3542 3.10417 25.6354 3 25.9062C2.91667 26.1562 2.82292 26.4479 2.71875 26.7812C2.63542 27.0938 2.52083 27.4792 2.375 27.9375C2.22917 28.3958 2.03125 28.9688 1.78125 29.6562L1.4375 30C1.35417 29.9583 1.21875 29.8542 1.03125 29.6875C0.864583 29.5 0.760417 29.3646 0.71875 29.2812ZM6 20.6562C6.875 20.8021 7.80208 20.7812 8.78125 20.5938C9.76042 20.3854 10.7292 20.0938 11.6875 19.7188C12.6667 19.3438 13.6042 18.9271 14.5 18.4688C15.3958 17.9896 16.2083 17.5521 16.9375 17.1562C18.6875 16.1771 19.9896 15.2292 20.8438 14.3125C21.7188 13.375 22.25 12.5104 22.4375 11.7188C22.625 10.9062 22.5312 10.1875 22.1562 9.5625C21.8021 8.9375 21.2604 8.4375 20.5312 8.0625C19.8229 7.66667 18.9896 7.41667 18.0312 7.3125C17.0938 7.20833 16.1354 7.28125 15.1562 7.53125C14.1979 7.78125 13.2812 8.22917 12.4062 8.875C11.5312 9.52083 10.8021 10.3958 10.2188 11.5C10.0104 11.8958 9.76042 12.3854 9.46875 12.9688C9.17708 13.5312 8.875 14.125 8.5625 14.75C8.25 15.375 7.9375 16 7.625 16.625C7.3125 17.2292 7.03125 17.7812 6.78125 18.2812C6.55208 18.7604 6.36458 19.1562 6.21875 19.4688C6.07292 19.7812 6 19.9479 6 19.9688V20.6562ZM19.5625 29.6562C19.3958 29.1771 19.4896 28.4375 19.8438 27.4375C20.1979 26.4167 20.6771 25.2708 21.2812 24C21.9062 22.7083 22.5938 21.375 23.3438 20C24.1146 18.625 24.8125 17.3438 25.4375 16.1562C26.0833 14.9479 26.6042 13.9271 27 13.0938C27.4167 12.2396 27.5833 11.6979 27.5 11.4688C27.25 11.3854 26.9792 11.4167 26.6875 11.5625C26.4167 11.7083 26.1354 11.8542 25.8438 12C25.5729 12.1458 25.3021 12.2292 25.0312 12.25C24.7604 12.2708 24.5208 12.125 24.3125 11.8125C24.2083 11.6667 24.1667 11.5312 24.1875 11.4062C24.2292 11.2604 24.2917 11.125 24.375 11C24.4792 10.875 24.5833 10.7708 24.6875 10.6875C24.8125 10.5833 24.9167 10.5 25 10.4375C27.375 8.875 29.625 7.65625 31.75 6.78125C33.8958 5.90625 35.8125 5.3125 37.5 5C39.2083 4.6875 40.6354 4.625 41.7812 4.8125C42.9479 5 43.75 5.38542 44.1875 5.96875C44.625 6.53125 44.6458 7.27083 44.25 8.1875C43.875 9.08333 42.9896 10.0938 41.5938 11.2188C40.2188 12.3438 38.2708 13.5521 35.75 14.8438C33.25 16.1146 30.1042 17.4167 26.3125 18.75C26.1042 19.0833 26.1562 19.4583 26.4688 19.875C26.8021 20.2917 27.2812 20.75 27.9062 21.25C28.5521 21.7292 29.3021 22.2292 30.1562 22.75C31.0312 23.2708 31.9062 23.8021 32.7812 24.3438C33.6771 24.8646 34.5208 25.3854 35.3125 25.9062C36.125 26.4062 36.7917 26.8854 37.3125 27.3438C37.8333 27.8021 38.1667 28.2292 38.3125 28.625C38.4792 29.0208 38.3438 29.3646 37.9062 29.6562C37.8854 29.6771 37.75 29.6042 37.5 29.4375C37.2708 29.25 36.9792 29.0208 36.625 28.75C36.2708 28.4583 35.8854 28.1458 35.4688 27.8125C35.0729 27.4792 34.6875 27.1667 34.3125 26.875C33.9583 26.5833 33.6458 26.3333 33.375 26.125C33.125 25.9167 32.9792 25.7917 32.9375 25.75C31.6875 24.9583 30.4375 24.1771 29.1875 23.4062C27.9375 22.6354 26.7188 21.7708 25.5312 20.8125C25.1354 20.6875 24.7396 20.8958 24.3438 21.4375C23.9479 21.9792 23.5625 22.6771 23.1875 23.5312C22.8125 24.3646 22.4375 25.2604 22.0625 26.2188C21.7083 27.1562 21.375 27.9792 21.0625 28.6875C20.75 29.375 20.4688 29.8438 20.2188 30.0938C19.9688 30.3646 19.75 30.2188 19.5625 29.6562ZM27 16.625C27.4583 16.7708 28.0729 16.7604 28.8438 16.5938C29.6354 16.4271 30.5 16.1458 31.4375 15.75C32.3958 15.3542 33.3854 14.875 34.4062 14.3125C35.4479 13.75 36.4375 13.1667 37.375 12.5625C38.3125 11.9375 39.1667 11.3125 39.9375 10.6875C40.7292 10.0625 41.3438 9.48958 41.7812 8.96875C42.2188 8.42708 42.4479 7.96875 42.4688 7.59375C42.5104 7.21875 42.2604 6.97917 41.7188 6.875C39.4688 6.83333 37.5521 6.94792 35.9688 7.21875C34.3854 7.46875 33.0312 7.94792 31.9062 8.65625C30.7812 9.36458 29.8333 10.3333 29.0625 11.5625C28.2917 12.7917 27.6042 14.3542 27 16.25V16.625Z" fill="white"/>
</svg>
