<svg width="53" height="64" viewBox="0 0 53 64" fill="none" xmlns="http://www.w3.org/2000/svg">
<path d="M40.8627 0H37.5079C35.4111 0 33.7337 1.67742 33.7337 3.77419V58.1855C33.7337 61.121 36.0401 63.4274 38.9756 63.4274H41.9111C44.8466 63.4274 47.153 61.121 47.153 58.1855V37.2177H48.7256C50.8224 37.2177 52.4998 35.5403 52.4998 33.4436V11.5323C52.395 5.1371 47.153 0 40.8627 0ZM41.9111 58.7097H38.9756C38.6611 58.7097 38.4514 58.5 38.4514 58.1855V37.2177H42.4353V58.0807C42.4353 58.3952 42.1208 58.7097 41.9111 58.7097ZM47.7821 32.5H38.4514V4.71774H40.8627C44.6369 4.71774 47.7821 7.8629 47.7821 11.6371V32.5Z" fill="white"/>
<path d="M21.3629 0.209331C20.1048 0.209331 18.9516 1.25772 18.9516 2.62062V17.4029H14.4436V2.51578C14.4436 1.25772 13.3952 0.104492 12.0323 0.104492C10.6694 0.104492 9.72581 1.25772 9.72581 2.51578V17.298H5.21774V2.51578C5.21774 1.25772 4.16936 0.104492 2.80645 0.104492C1.44355 0.104492 0.5 1.25772 0.5 2.51578V25.1609C0.5 28.2013 2.59677 30.7174 5.53226 31.4513V58.1851C5.53226 61.1206 7.83871 63.4271 10.7742 63.4271H13.6048C16.5403 63.4271 18.8468 61.1206 18.8468 58.1851V31.4513C21.6774 30.8222 23.7742 28.2013 23.7742 25.2658V2.51578C23.6694 1.25772 22.621 0.209331 21.3629 0.209331ZM13.5 58.7093H10.6694C10.3548 58.7093 10.1452 58.4997 10.1452 58.1851V31.5561H14.0242V58.0803C14.0242 58.3948 13.8145 58.7093 13.5 58.7093ZM17.2742 26.8384H6.89516C5.95161 26.8384 5.21774 26.1045 5.21774 25.1609V22.0158H18.9516V25.1609C18.9516 26.1045 18.2177 26.8384 17.2742 26.8384Z" fill="white"/>
</svg>
