<svg width="18" height="24" viewBox="0 0 18 24" fill="none" xmlns="http://www.w3.org/2000/svg">
<path d="M15.6075 3.30001H12.72V2.66251C12.72 1.53751 11.82 0.637512 10.695 0.637512H7.80747C6.68247 0.637512 5.78247 1.53751 5.78247 2.66251V3.30001H2.89497C1.80747 3.30001 0.907471 4.20001 0.907471 5.28751V6.41251C0.907471 7.23751 1.39497 7.91251 2.10747 8.21251L2.70747 21.1875C2.78247 22.425 3.75747 23.3625 4.99497 23.3625H13.4325C14.67 23.3625 15.6825 22.3875 15.72 21.1875L16.395 8.17501C17.1075 7.87501 17.595 7.16251 17.595 6.37501V5.25001C17.595 4.20001 16.695 3.30001 15.6075 3.30001ZM7.50747 2.66251C7.50747 2.47501 7.65747 2.32501 7.84497 2.32501H10.7325C10.92 2.32501 11.07 2.47501 11.07 2.66251V3.30001H7.54497V2.66251H7.50747ZM2.63247 5.28751C2.63247 5.13751 2.74497 4.98751 2.93247 4.98751H15.6075C15.7575 4.98751 15.9075 5.10001 15.9075 5.28751V6.41251C15.9075 6.56251 15.795 6.71251 15.6075 6.71251H2.93247C2.78247 6.71251 2.63247 6.60001 2.63247 6.41251V5.28751V5.28751ZM13.47 21.675H5.06997C4.73247 21.675 4.46997 21.4125 4.46997 21.1125L3.86997 8.40001H14.7075L14.1075 21.1125C14.07 21.4125 13.8075 21.675 13.47 21.675Z" fill="#A80101"/>
<path d="M9.26997 12.15C8.81997 12.15 8.40747 12.525 8.40747 13.0125V17.775C8.40747 18.225 8.78247 18.6375 9.26997 18.6375C9.71997 18.6375 10.1325 18.2625 10.1325 17.775V13.0125C10.1325 12.525 9.71997 12.15 9.26997 12.15Z" fill="#A80101"/>
<path d="M12.2699 12.9C11.7824 12.8625 11.4074 13.2 11.3699 13.6875L11.1449 16.9875C11.1074 17.4375 11.4449 17.85 11.9324 17.8875C11.9699 17.8875 11.9699 17.8875 12.0074 17.8875C12.4574 17.8875 12.8324 17.55 12.8324 17.1L13.0574 13.8C13.0574 13.3125 12.7199 12.9375 12.2699 12.9Z" fill="#A80101"/>
<path d="M6.23247 12.9C5.78247 12.9375 5.40747 13.35 5.44497 13.8L5.70747 17.1C5.74497 17.55 6.11997 17.8875 6.53247 17.8875C6.56997 17.8875 6.56997 17.8875 6.60747 17.8875C7.05747 17.85 7.43247 17.4375 7.39497 16.9875L7.13247 13.6875C7.13247 13.2 6.71997 12.8625 6.23247 12.9Z" fill="#A80101"/>
</svg>
